<?xml version="1.0" encoding="iso-8859-1"?>
<!-- Generator: Adobe Illustrator 16.0.0, SVG Export Plug-In . SVG Version: 6.00 Build 0)  -->
<!DOCTYPE svg PUBLIC "-//W3C//DTD SVG 1.1//EN" "http://www.w3.org/Graphics/SVG/1.1/DTD/svg11.dtd">
<svg version="1.1" id="Capa_1" xmlns="http://www.w3.org/2000/svg" xmlns:xlink="http://www.w3.org/1999/xlink" x="0px" y="0px"
	 width="637.285px" height="637.285px" viewBox="0 0 637.285 637.285" style="enable-background:new 0 0 637.285 637.285;"
	 xml:space="preserve">
<g>
	<g>
		<path d="M428.524,231.671c0,0-1.021,7.619-2.616,20.003v0.122c-6.467,51.36-23.261,185.028-24.953,211.323l-0.02-0.058
			c0,0-0.019,0.428-0.019,0.603c-0.088,1.108-0.146,2.314-0.146,3.005v2.275c-0.612,20.373-3.015,89.018-8.732,117.871
			c-1.342,5.134-4.765,13.03-13.507,15.977c-2.373,0.613-4.795,1.226-7.391,1.226h-97.896c-23.519,0-27.793-17.592-28.61-24.467
			c-2.46-29.329-6.204-89.096-8.115-120.564v-3.103c0-3.17-0.457-9.18-1.206-16.861c-0.029-0.292-0.029-0.467-0.029-0.467
			l-0.01,0.039c-4.113-42.429-17.616-141.599-23.669-185.408c0-0.229,0-0.438-0.122-0.667c-1.123-8.305-2.037-14.558-2.489-17.985
			c0-0.457-0.107-0.924-0.107-1.245c0-0.457-0.122-0.812-0.122-1.031v-0.549c-0.117-1.367-0.117-2.869-0.117-4.235
			c0-41.441,22.901-77.349,56.611-96.142l-0.073-0.059c0,0,3.2-1.784,8.567-4.074c1.454-0.646,2.795-1.483,4.269-2.081
			c2.042-0.769,4.254-1.405,6.516-1.949c21.068-6.943,55.988-12.827,87.584,8.104c0.203,0.127,0.311,0.248,0.544,0.39
			c33.346,18.88,55.936,54.637,55.936,95.825C428.642,228.803,428.642,230.305,428.524,231.671L428.524,231.671z M371.568,95.319
			V60.934c12.612-3.408,21.793-14.976,21.793-28.609v-2.669C393.38,13.342,380.174,0,363.691,0h-90.107
			c-16.463,0-29.664,13.342-29.664,29.655v2.669c0,13.634,9.189,25.201,21.787,28.609v34.386
			c-52.925,21.049-90.428,72.788-90.428,133.425c0,1.761,0,3.7,0.15,5.465v0.758c0,0.287,0.146,0.734,0.146,1.333
			c0,0.438,0.15,1.036,0.15,1.624c0.607,4.458,1.794,12.608,3.268,23.421c0.15,0.297,0.15,0.608,0.15,0.895
			c9.351,67.751,32.451,237.463,32.451,264.146v81.238c0,16.299,13.342,29.66,29.654,29.66h154.775
			c16.317,0,29.66-13.361,29.66-29.66v-67.138c0-19.43,23.854-209.456,32.752-280.026V260.3c2.1-16.162,3.423-26.091,3.423-26.091
			c0.146-1.765,0.146-3.705,0.146-5.465C461.996,168.107,424.498,116.378,371.568,95.319L371.568,95.319z"/>
		<path d="M301.863,265.566v193.469c-4.284,7.43-10.274,0-10.274,0l-24.637-193.469h-29.514l7.157,57.501l19.458,182.49l0,0
			l4.818,51.238c0,7.526,6.224,13.77,13.78,13.77h71.976c5.105,0,9.452-2.976,11.835-7.157c0.039-0.02,0.136,0.039,0.175,0
			c0.078-0.107,0.136-0.312,0.194-0.555c0.428-0.816,0.739-1.673,1.041-2.528h0.02c0,0,0.02-0.136,0.049-0.155
			c0.136-0.467,0.175-0.973,0.262-1.517c0.749-4.318,2.84-17.388,3.346-34.348c4.736-46.804,10.853-119.037,10.853-119.037v0.02
			c0.477-3.618,0.904-7.021,1.265-9.9v-0.126c0.612-4.813,1.166-8.45,1.293-10.405h0.155l14.801-119.29H301.863L301.863,265.566
			L301.863,265.566z"/>
	</g>
</g>
<g>
</g>
<g>
</g>
<g>
</g>
<g>
</g>
<g>
</g>
<g>
</g>
<g>
</g>
<g>
</g>
<g>
</g>
<g>
</g>
<g>
</g>
<g>
</g>
<g>
</g>
<g>
</g>
<g>
</g>
</svg>
