<svg width="28" height="28" viewBox="0 0 28 28" fill="none" xmlns="http://www.w3.org/2000/svg">
<g clip-path="url(#clip0_77_156)">
<path d="M14 24C19.5228 24 24 19.5228 24 14C24 8.47717 19.5228 4 14 4C8.47717 4 4 8.47717 4 14C4 19.5228 8.47717 24 14 24Z" fill="url(#paint0_linear_77_156)"/>
<path d="M7.72434 14.4892C8.89333 13.8453 10.1983 13.3079 11.4175 12.7677C13.5151 11.883 15.621 11.0136 17.7482 10.2042C18.162 10.0662 18.9057 9.93136 18.9786 10.5447C18.9387 11.4129 18.7744 12.2759 18.6617 13.139C18.3758 15.037 18.0453 16.9285 17.723 18.8203C17.612 19.4504 16.8226 19.7766 16.3175 19.3734C15.1037 18.5534 13.8805 17.7415 12.6822 16.9026C12.2896 16.5037 12.6536 15.9309 13.0042 15.6461C14.004 14.6609 15.0642 13.8238 16.0117 12.7876C16.2673 12.1704 15.5121 12.6906 15.263 12.8499C13.8944 13.7931 12.5592 14.7939 11.1162 15.6228C10.3791 16.0285 9.52004 15.6818 8.78329 15.4554C8.1227 15.1819 7.15469 14.9063 7.72428 14.4893L7.72434 14.4892Z" fill="white"/>
</g>
<defs>
<linearGradient id="paint0_linear_77_156" x1="11.5012" y1="4.834" x2="6.50117" y2="16.5" gradientUnits="userSpaceOnUse">
<stop stop-color="#37AEE2"/>
<stop offset="1" stop-color="#1E96C8"/>
</linearGradient>
<clipPath id="clip0_77_156">
<rect width="20" height="20" fill="white" transform="translate(4 4)"/>
</clipPath>
</defs>
</svg>
