<svg width="28" height="28" viewBox="0 0 28 28" fill="none" xmlns="http://www.w3.org/2000/svg">
<g clip-path="url(#clip0_77_166)">
<path fill-rule="evenodd" clip-rule="evenodd" d="M10.6374 22.6199L5.83047 24.1496L4.375 24.6128L6.4197 18.5734C6.07657 17.9427 5.80478 17.2745 5.61113 16.5826C5.37623 15.743 5.2577 14.8753 5.2577 14.0035C5.2577 11.4382 6.27836 9.00617 8.09788 7.2013C9.92332 5.39054 12.3736 4.38721 14.9442 4.38721C17.5141 4.38721 19.963 5.39175 21.7869 7.20276C23.6056 9.00873 24.625 11.4413 24.625 14.0066C24.625 16.5715 23.6045 19.0033 21.7855 20.808C19.9608 22.6185 17.5114 23.6221 14.9413 23.6221C14.126 23.6221 13.3136 23.5215 12.5236 23.3194C11.8721 23.1527 11.2397 22.9179 10.6374 22.6199L10.6374 22.6199Z" fill="#EEEEEE"/>
<path fill-rule="evenodd" clip-rule="evenodd" d="M23.8527 14.0066C23.8527 11.5637 22.8552 9.35194 21.2426 7.7507C19.6303 6.14968 17.4033 5.15942 14.9441 5.15942C12.4828 5.15942 10.2548 6.14935 8.64166 7.7495C7.0278 9.35037 6.02987 11.5617 6.02987 14.0035C6.02987 14.8231 6.14323 15.6185 6.35475 16.3744C6.56493 17.1255 6.8724 17.8366 7.26214 18.493L5.71824 23.0531L5.59619 23.4136L5.95883 23.2982L10.7075 21.787C11.3361 22.1254 12.0088 22.3905 12.7149 22.5712C13.4264 22.7531 14.172 22.8498 14.9413 22.8498C17.4015 22.8498 19.6288 21.8598 21.2415 20.2598C22.8549 18.659 23.8527 16.4478 23.8527 14.0066Z" fill="#54CC61"/>
<path fill-rule="evenodd" clip-rule="evenodd" d="M13.495 11.5916C13.4558 11.5127 13.23 10.9674 13.0219 10.4647C12.8889 10.1433 12.762 9.83688 12.7371 9.7776C12.5027 9.21875 12.2436 9.2356 12.0449 9.24851C12.0319 9.24935 12.0193 9.25018 12.0025 9.25018C11.9332 9.25018 11.865 9.24586 11.7944 9.24139C11.7061 9.23579 11.6145 9.22998 11.5279 9.22998C11.4128 9.22998 11.2559 9.25387 11.0908 9.33116C10.9683 9.38848 10.842 9.47479 10.7264 9.60184C10.7095 9.62005 10.6968 9.63341 10.683 9.64791C10.4079 9.93711 9.80811 10.5675 9.80811 11.7783C9.80811 13.0483 10.724 14.2561 10.8585 14.4335L10.8581 14.4338L10.8593 14.4354L10.8608 14.437C10.8661 14.4438 10.8855 14.4722 10.9143 14.5142C11.2525 15.0089 12.8074 17.283 15.1712 18.2063C17.3156 19.043 17.7036 18.9491 18.0502 18.8653C18.1093 18.851 18.1669 18.837 18.2292 18.8313C18.5099 18.8049 18.969 18.6128 19.3554 18.3429C19.676 18.1191 19.9557 17.8362 20.0629 17.5384C20.1584 17.2721 20.2125 17.0247 20.2375 16.821C20.2739 16.5252 20.2451 16.2925 20.1913 16.2026L20.1905 16.2018C20.1087 16.067 19.9672 16.0002 19.7548 15.8999C19.7174 15.8822 19.6774 15.8634 19.6389 15.8447L19.639 15.8445C19.4926 15.77 18.986 15.5223 18.553 15.3177C18.2732 15.1854 18.0246 15.0717 17.9262 15.0364C17.7877 14.9867 17.667 14.9491 17.5376 14.9636C17.391 14.9802 17.263 15.0557 17.1444 15.2354L17.1441 15.2351C17.0845 15.3246 16.9796 15.4588 16.8649 15.5993C16.6832 15.8218 16.4665 16.0716 16.3742 16.1765V16.1773C16.3348 16.2222 16.3008 16.2466 16.2674 16.2507C16.2211 16.2563 16.1575 16.2373 16.0695 16.194C16.0132 16.1659 15.9583 16.1422 15.8906 16.113C15.5482 15.9652 14.8812 15.6774 14.1211 15.0044C13.8492 14.7638 13.6099 14.5007 13.41 14.2539C13.0866 13.8543 12.868 13.4984 12.7811 13.3484C12.7126 13.2309 12.7888 13.1547 12.8591 13.0843L12.8587 13.0839C12.9365 13.0062 13.0245 12.9004 13.1129 12.7943C13.1531 12.7459 13.1933 12.6976 13.2423 12.6412L13.243 12.6404C13.3621 12.5019 13.4115 12.401 13.4782 12.2649C13.4898 12.2412 13.5019 12.2164 13.5142 12.192L13.5149 12.1912C13.5735 12.0731 13.5885 11.9607 13.5776 11.8555C13.5675 11.7575 13.5347 11.67 13.4947 11.5917L13.4949 11.5916L13.495 11.5916Z" fill="#FFFFFE"/>
</g>
<defs>
<clipPath id="clip0_77_166">
<rect width="27" height="27" fill="white" transform="translate(1 1)"/>
</clipPath>
</defs>
</svg>
