<svg width="97" height="77" viewBox="0 0 97 77" fill="none" xmlns="http://www.w3.org/2000/svg">
<g filter="url(#filter0_d_46_1234)">
<line y1="69.24" x2="91.9751" y2="69.24" stroke="#929292" stroke-width="5.52"/>
</g>
<g filter="url(#filter1_d_46_1234)">
<path d="M0.0249023 2H92" stroke="#929292" stroke-width="3.06667"/>
</g>
<g filter="url(#filter2_d_46_1234)">
<path d="M0 36.4947C0 20.5741 12.9061 7.66801 28.8267 7.66801H90.1108V34.8918C90.1108 50.8123 77.2046 63.7184 61.2841 63.7184H0V36.4947Z" fill="#0D0C0C"/>
</g>
<path d="M40.5485 26.6822C40.1462 26.6822 39.7046 26.6282 39.2237 26.5203C38.7429 26.4222 38.2473 26.2112 37.737 25.8873C37.2365 25.5537 36.7458 25.0581 36.265 24.4006L36.9715 23.7529C37.3739 24.3221 37.8547 24.7539 38.4141 25.0483C38.9833 25.3427 39.5721 25.4899 40.1805 25.4899C40.8969 25.4899 41.4857 25.3034 41.9469 24.9305C42.4179 24.5576 42.7712 24.0473 43.0067 23.3996C43.2423 22.7422 43.36 21.9914 43.36 21.1475C43.36 20.6176 43.3061 20.1024 43.1981 19.6019C43.1 19.1014 42.9381 18.6549 42.7123 18.2624C42.4866 17.8698 42.1922 17.5558 41.8291 17.3203C41.4661 17.0848 41.0294 16.967 40.5191 16.967C39.8321 16.9768 39.2581 17.1682 38.7968 17.5411C38.3356 17.914 38.0363 18.4783 37.8989 19.2339H36.9274V16.0102H38.0608L38.0314 16.6873C38.4239 16.4322 38.8557 16.2408 39.3267 16.1132C39.8076 15.9759 40.2688 15.9072 40.7104 15.9072C41.5642 15.9072 42.3051 16.0544 42.9331 16.3488C43.5612 16.6334 44.0764 17.0259 44.4787 17.5264C44.8811 18.017 45.1804 18.5764 45.3767 19.2044C45.5729 19.8325 45.6711 20.4802 45.6711 21.1475C45.6711 21.8835 45.5533 22.5851 45.3178 23.2524C45.0823 23.9099 44.7437 24.4987 44.3021 25.0188C43.8605 25.5291 43.3208 25.9364 42.6829 26.2406C42.0549 26.535 41.3434 26.6822 40.5485 26.6822ZM38.6938 22.958V19.2339H39.8272C39.8174 19.4203 39.8076 19.6313 39.7978 19.8668C39.788 20.0926 39.7733 20.3084 39.7536 20.5145H43.7133V21.6774L41.1079 21.6627C40.8429 21.6627 40.6025 21.6872 40.3866 21.7363C40.1707 21.7755 39.9941 21.8884 39.8567 22.0748C39.7291 22.2515 39.6653 22.5459 39.6653 22.958H38.6938ZM50.4617 26.6822C49.9318 26.6822 49.5049 26.5694 49.1811 26.3436C48.8671 26.1179 48.7101 25.7941 48.7101 25.3721C48.7101 25.0287 48.8033 24.7294 48.9897 24.4742C49.186 24.2092 49.4951 24.0768 49.9171 24.0768C50.2606 24.0768 50.5108 24.17 50.6678 24.3564C50.8248 24.5429 50.9033 24.7686 50.9033 25.0336C50.9033 25.2004 50.8641 25.3378 50.7856 25.4457C50.8346 25.4752 50.9082 25.4899 51.0064 25.4899C51.1438 25.4899 51.3057 25.3672 51.4921 25.1219C51.6786 24.8766 51.8601 24.4938 52.0368 23.9737C52.2232 23.4438 52.3852 22.7667 52.5225 21.9424C52.6599 21.1082 52.7433 20.1073 52.7728 18.9395L52.8169 17.232L52.4489 17.2467L51.1241 17.2761V16.1427H59.2496V17.1142C59.0337 17.124 58.8472 17.1535 58.6902 17.2025C58.5332 17.2516 58.4105 17.3644 58.3222 17.5411C58.2437 17.7079 58.2045 17.9925 58.2045 18.3948V24.0326C58.2045 24.2976 58.1996 24.5527 58.1897 24.798C58.1799 25.0434 58.1652 25.2298 58.1456 25.3574C58.3124 25.3378 58.5136 25.328 58.7491 25.328C58.9846 25.3182 59.1514 25.3132 59.2496 25.3132V26.4467H55.0249V25.4752C55.2506 25.4654 55.4371 25.4359 55.5843 25.3868C55.7413 25.3378 55.8591 25.2249 55.9376 25.0483C56.0259 24.8716 56.0701 24.5871 56.0701 24.1945V17.2467L54.8925 17.2908C54.5588 17.3007 54.3135 17.3694 54.1565 17.4969C53.9994 17.6147 53.916 17.8355 53.9062 18.1593C53.8768 19.4252 53.7934 20.5342 53.656 21.486C53.5284 22.4379 53.3567 23.2475 53.1408 23.9148C52.9249 24.5723 52.6746 25.1072 52.3901 25.5193C52.1055 25.9217 51.7964 26.2161 51.4627 26.4025C51.1389 26.589 50.8052 26.6822 50.4617 26.6822ZM67.1558 17.1142C66.9399 17.124 66.7535 17.1535 66.5965 17.2025C66.4395 17.2516 66.3168 17.3644 66.2285 17.5411C66.15 17.7079 66.1107 17.9925 66.1107 18.3948V24.0326C66.1107 24.2976 66.1058 24.5527 66.096 24.798C66.0862 25.0434 66.0715 25.2298 66.0518 25.3574C66.2088 25.3378 66.4051 25.328 66.6406 25.328C66.886 25.3182 67.0577 25.3132 67.1558 25.3132V26.4467H62.9312V25.4752C63.1569 25.4654 63.3434 25.4359 63.4906 25.3868C63.6476 25.3378 63.7653 25.2249 63.8438 25.0483C63.9322 24.8716 63.9763 24.5871 63.9763 24.1945V18.5568C63.9763 18.2918 63.9812 18.0367 63.991 17.7913C64.0107 17.546 64.0254 17.3595 64.0352 17.232C63.8782 17.2418 63.6819 17.2516 63.4464 17.2614C63.2109 17.2614 63.0391 17.2663 62.9312 17.2761V16.1427H67.1558V17.1142ZM73.5149 17.1142C73.299 17.124 73.1125 17.1535 72.9555 17.2025C72.7985 17.2516 72.6758 17.3644 72.5875 17.5411C72.509 17.7079 72.4698 17.9925 72.4698 18.3948V24.0326C72.4698 24.2976 72.4648 24.5527 72.455 24.798C72.4452 25.0434 72.4305 25.2298 72.4109 25.3574C72.5679 25.3378 72.7642 25.328 72.9997 25.328C73.245 25.3182 73.4167 25.3132 73.5149 25.3132V26.4467H69.2902V25.4752C69.5159 25.4654 69.7024 25.4359 69.8496 25.3868C70.0066 25.3378 70.1244 25.2249 70.2029 25.0483C70.2912 24.8716 70.3354 24.5871 70.3354 24.1945V18.5568C70.3354 18.2918 70.3403 18.0367 70.3501 17.7913C70.3697 17.546 70.3844 17.3595 70.3942 17.232C70.2372 17.2418 70.041 17.2516 69.8054 17.2614C69.5699 17.2614 69.3982 17.2663 69.2902 17.2761V16.1427H73.5149V17.1142ZM71.4688 16.5843L72.1754 17.2908L64.8301 26.0198L64.0794 25.2691L71.4688 16.5843ZM84.6228 19.44C84.4953 18.6255 84.2205 18.0121 83.7985 17.6C83.3864 17.1878 82.8368 16.9768 82.1499 16.967C81.6396 16.967 81.1931 17.0848 80.8104 17.3203C80.4276 17.5558 80.1087 17.8698 79.8536 18.2624C79.6082 18.6549 79.4218 19.1014 79.2942 19.6019C79.1764 20.1024 79.1176 20.6176 79.1176 21.1475C79.1176 21.9914 79.2353 22.7422 79.4708 23.3996C79.7162 24.0473 80.0695 24.5576 80.5307 24.9305C80.9919 25.3034 81.5513 25.4899 82.2088 25.4899C82.827 25.4899 83.4403 25.3329 84.0488 25.0188C84.6572 24.695 85.1675 24.2485 85.5796 23.6793L86.2862 24.327C85.8053 24.9845 85.3 25.485 84.77 25.8284C84.2401 26.1621 83.72 26.3878 83.2097 26.5056C82.7092 26.6233 82.2578 26.6822 81.8555 26.6822C81.0999 26.6822 80.4129 26.5497 79.7947 26.2848C79.1764 26.01 78.6416 25.6371 78.1902 25.166C77.7486 24.6852 77.4051 24.1307 77.1598 23.5027C76.9243 22.8648 76.8065 22.1779 76.8065 21.4419C76.8065 20.7746 76.9145 20.1122 77.1304 19.4547C77.3463 18.7972 77.6652 18.2035 78.0872 17.6736C78.5189 17.1338 79.0587 16.707 79.7064 16.3929C80.354 16.0691 81.1048 15.9072 81.9585 15.9072C82.3412 15.9072 82.7583 15.971 83.2097 16.0985C83.6709 16.2163 84.1027 16.3929 84.5051 16.6284L84.4462 16.0102H85.5796V19.44H84.6228Z" fill="#F0E3E3"/>
<g clip-path="url(#clip0_46_1234)">
<path d="M24.2262 48.0659C23.633 47.7142 22.9767 47.5766 22.3419 47.6288L21.4791 43.3385L33.7861 37.4343C34.3116 37.1825 34.4466 36.302 34.4466 36.302L20.9852 40.8823L18.1176 26.6216C18.1176 26.6216 17.4424 27.182 17.4927 27.7751L18.6666 41.6711L14.6168 43.0491C14.3434 42.4585 13.8992 41.9437 13.306 41.592C11.749 40.669 9.75786 41.2168 8.85894 42.8156C7.96003 44.4143 8.49352 46.4588 10.0505 47.3818C11.2802 48.1109 12.7803 47.9217 13.7996 47.0226L18.9115 44.5702L19.3991 50.3422C19.1505 51.6982 19.741 53.1267 20.9708 53.8557C22.5277 54.7787 24.5188 54.2309 25.4178 52.6322C26.3167 51.0334 25.7832 48.9889 24.2262 48.0659ZM10.688 46.0106C9.7952 45.4813 9.48933 44.3089 10.0048 43.3922C10.5203 42.4754 11.662 42.1612 12.5548 42.6905C13.4477 43.2198 13.7536 44.3922 13.2381 45.309C12.7226 46.2258 11.5809 46.5399 10.688 46.0106ZM19.9818 42.6668C19.7586 42.5345 19.6821 42.2414 19.811 42.0122C19.9398 41.783 20.2253 41.7044 20.4485 41.8368C20.6718 41.9691 20.7482 42.2622 20.6194 42.4914C20.4904 42.7206 20.205 42.7991 19.9818 42.6668ZM21.6005 52.4798C20.7076 51.9505 20.4018 50.7782 20.9172 49.8614C21.4327 48.9446 22.5744 48.6305 23.4672 49.1598C24.3601 49.6891 24.666 50.8614 24.1505 51.7782C23.635 52.695 22.4933 53.0091 21.6005 52.4798Z" fill="#FFFCFC"/>
</g>
<g filter="url(#filter3_d_46_1234)">
<path d="M39.6088 40.7314C39.6088 50.8304 31.6378 59.0033 21.8221 59.0033C12.0064 59.0033 4.03543 50.8304 4.03543 40.7314C4.03543 30.6325 12.0064 22.4596 21.8221 22.4596C31.6378 22.4596 39.6088 30.6325 39.6088 40.7314Z" stroke="#929292" stroke-width="0.613333" shape-rendering="crispEdges"/>
</g>
<path d="M40.8353 40.7314C40.8353 50.8304 32.8644 59.0033 23.0487 59.0033C13.2329 59.0033 5.26199 50.8304 5.26199 40.7314C5.26199 30.6325 13.2329 22.4596 23.0487 22.4596C32.8644 22.4596 40.8353 30.6325 40.8353 40.7314Z" stroke="#F6EDED" stroke-width="0.613333"/>
<defs>
<filter id="filter0_d_46_1234" x="-2.45333" y="66.48" width="96.8818" height="10.4267" filterUnits="userSpaceOnUse" color-interpolation-filters="sRGB">
<feFlood flood-opacity="0" result="BackgroundImageFix"/>
<feColorMatrix in="SourceAlpha" type="matrix" values="0 0 0 0 0 0 0 0 0 0 0 0 0 0 0 0 0 0 127 0" result="hardAlpha"/>
<feOffset dy="2.45333"/>
<feGaussianBlur stdDeviation="1.22667"/>
<feComposite in2="hardAlpha" operator="out"/>
<feColorMatrix type="matrix" values="0 0 0 0 0 0 0 0 0 0 0 0 0 0 0 0 0 0 0.25 0"/>
<feBlend mode="normal" in2="BackgroundImageFix" result="effect1_dropShadow_46_1234"/>
<feBlend mode="normal" in="SourceGraphic" in2="effect1_dropShadow_46_1234" result="shape"/>
</filter>
<filter id="filter1_d_46_1234" x="-2.42843" y="0.466667" width="96.8818" height="7.97333" filterUnits="userSpaceOnUse" color-interpolation-filters="sRGB">
<feFlood flood-opacity="0" result="BackgroundImageFix"/>
<feColorMatrix in="SourceAlpha" type="matrix" values="0 0 0 0 0 0 0 0 0 0 0 0 0 0 0 0 0 0 127 0" result="hardAlpha"/>
<feOffset dy="2.45333"/>
<feGaussianBlur stdDeviation="1.22667"/>
<feComposite in2="hardAlpha" operator="out"/>
<feColorMatrix type="matrix" values="0 0 0 0 0 0 0 0 0 0 0 0 0 0 0 0 0 0 0.25 0"/>
<feBlend mode="normal" in2="BackgroundImageFix" result="effect1_dropShadow_46_1234"/>
<feBlend mode="normal" in="SourceGraphic" in2="effect1_dropShadow_46_1234" result="shape"/>
</filter>
<filter id="filter2_d_46_1234" x="-6.13333" y="5.21468" width="102.378" height="68.3171" filterUnits="userSpaceOnUse" color-interpolation-filters="sRGB">
<feFlood flood-opacity="0" result="BackgroundImageFix"/>
<feColorMatrix in="SourceAlpha" type="matrix" values="0 0 0 0 0 0 0 0 0 0 0 0 0 0 0 0 0 0 127 0" result="hardAlpha"/>
<feOffset dy="3.68"/>
<feGaussianBlur stdDeviation="3.06667"/>
<feComposite in2="hardAlpha" operator="out"/>
<feColorMatrix type="matrix" values="0 0 0 0 0 0 0 0 0 0 0 0 0 0 0 0 0 0 0.5 0"/>
<feBlend mode="normal" in2="BackgroundImageFix" result="effect1_dropShadow_46_1234"/>
<feBlend mode="normal" in="SourceGraphic" in2="effect1_dropShadow_46_1234" result="shape"/>
</filter>
<filter id="filter3_d_46_1234" x="1.27543" y="21.5396" width="41.0934" height="42.0637" filterUnits="userSpaceOnUse" color-interpolation-filters="sRGB">
<feFlood flood-opacity="0" result="BackgroundImageFix"/>
<feColorMatrix in="SourceAlpha" type="matrix" values="0 0 0 0 0 0 0 0 0 0 0 0 0 0 0 0 0 0 127 0" result="hardAlpha"/>
<feOffset dy="1.84"/>
<feGaussianBlur stdDeviation="1.22667"/>
<feComposite in2="hardAlpha" operator="out"/>
<feColorMatrix type="matrix" values="0 0 0 0 0.166667 0 0 0 0 0.156944 0 0 0 0 0.156944 0 0 0 1 0"/>
<feBlend mode="normal" in2="BackgroundImageFix" result="effect1_dropShadow_46_1234"/>
<feBlend mode="normal" in="SourceGraphic" in2="effect1_dropShadow_46_1234" result="shape"/>
</filter>
<clipPath id="clip0_46_1234">
<rect width="21.6888" height="21.9776" fill="white" transform="matrix(0.860201 0.509955 -0.490111 0.87166 16.9536 25.9316)"/>
</clipPath>
</defs>
</svg>
